<svg xmlns="http://www.w3.org/2000/svg" viewBox="0 0 1147.23 884.56"><defs><style>.cls-1{fill:#00256f;}.cls-2{fill:#fff;}.cls-3{fill:#e20027;}</style></defs><title>Asset 2</title><g id="Layer_2" data-name="Layer 2"><g id="Layer_2-2" data-name="Layer 2"><polygon class="cls-1" points="0 768.42 1147.23 439.46 1147.23 555.6 0 884.56 0 768.42"/><polygon class="cls-2" points="58.07 821.45 61.43 830.93 71.69 824.11 65.62 834.99 75.05 837.88 64.12 841.96 65.63 852.4 58.07 846.62 50.51 856.74 52.02 845.43 41.09 847.62 50.52 839.31 44.45 831.92 54.71 832.86 58.07 821.45"/><polygon class="cls-2" points="174.21 806.95 175.81 811.47 180.69 808.22 177.8 813.4 182.29 814.78 177.09 816.72 177.81 821.69 174.21 818.94 170.61 823.75 171.32 818.37 166.12 819.41 170.61 815.46 167.72 811.94 172.61 812.39 174.21 806.95"/><polygon class="cls-2" points="145.17 769.31 146.77 773.82 151.66 770.57 148.77 775.75 153.26 777.13 148.05 779.08 148.77 784.04 145.17 781.29 141.57 786.11 142.29 780.73 137.08 781.77 141.58 777.81 138.69 774.29 143.57 774.74 145.17 769.31"/><polygon class="cls-2" points="174.21 729.53 175.81 734.04 180.69 730.79 177.8 735.97 182.29 737.35 177.09 739.3 177.81 744.27 174.21 741.51 170.61 746.33 171.32 740.95 166.12 741.99 170.61 738.03 167.72 734.51 172.61 734.96 174.21 729.53"/><polygon class="cls-2" points="200.01 745.84 201.61 750.35 206.5 747.1 203.61 752.28 208.1 753.66 202.9 755.61 203.61 760.58 200.01 757.82 196.41 762.64 197.13 757.26 191.93 758.3 196.42 754.35 193.53 750.82 198.41 751.27 200.01 745.84"/><polygon class="cls-2" points="185.82 773.21 187.08 775.94 190.42 775.23 187.87 778.12 188.66 781.14 185.82 780.2 182.97 782.78 183.77 779.3 181.22 777.87 184.56 776.67 185.82 773.21"/><polygon class="cls-2" points="58.07 780.8 66.72 778.32 116.14 788.86 116.14 786.7 71.05 777.08 116.14 741.61 116.14 735.12 58.07 780.8 58.07 776.48 107.48 737.6 103.15 738.84 58.07 774.31 12.98 764.7 0 768.42 0 774.91 45.08 784.53 0 820 0 826.49 12.98 822.77 58.07 787.3 103.15 796.91 116.14 793.19 58.07 780.8 58.07 780.8"/><polygon class="cls-3" points="58.07 780.8 116.14 793.19 116.14 788.86 66.72 778.32 58.07 780.8"/><polygon class="cls-3" points="58.07 780.8 116.14 735.12 107.48 737.6 58.07 776.48 58.07 780.8"/><polygon class="cls-3" points="58.07 785.13 58.07 780.8 0 826.49 8.66 824.01 58.07 785.13"/><polygon class="cls-3" points="58.07 780.8 0 768.42 0 772.75 49.41 783.29 58.07 780.8 58.07 780.8"/><polygon class="cls-2" points="116.14 758.35 116.14 754.48 67.75 768.35 67.75 748.99 63.88 750.1 63.88 773.33 116.14 758.35"/><polygon class="cls-2" points="63.88 784.95 63.88 808.17 67.75 807.06 67.75 787.71 116.14 773.83 116.14 769.96 63.88 784.95"/><polygon class="cls-2" points="52.26 753.43 48.39 754.54 48.39 773.9 0 787.78 0 791.65 52.26 776.66 52.26 753.43"/><polygon class="cls-2" points="52.26 788.28 0 803.26 0 807.13 48.39 793.26 48.39 812.61 52.26 811.5 52.26 788.28"/><polygon class="cls-3" points="63.88 773.33 63.88 750.1 58.07 751.77 52.26 753.43 52.26 776.66 0 791.65 0 797.46 0 803.26 52.26 788.28 52.26 811.5 58.07 809.84 63.88 808.17 63.88 784.95 116.14 769.96 116.14 764.15 116.14 758.35 63.88 773.33"/><path class="cls-2" d="M490.93,125.51l8.65-2.48L507,149l13.48-3.87,2.16,7.55-22.13,6.35Z"/><path class="cls-2" d="M517.54,117.88l24.6-7,2.09,7.29-16,4.57,1.61,5.59,15.59-4.47,2.11,7.34L532,135.62l1.73,6,15.95-4.57,2.09,7.29-24.6,7.05Z"/><path class="cls-2" d="M576.82,131.7l-13.94,4-.25,5.57-9.41,2.7,3-37.17,10.86-3.12,22.3,29.92-9.41,2.7Zm-13.77-3.95,9.41-2.7-8.64-12.28Z"/><path class="cls-2" d="M601.68,117.76,597.25,119l3.26,11.37-8.65,2.48-9.62-33.55L599,94.51c7.44-2.13,13.08,1.58,14.87,7.82,1.68,5.84-1,10-3.8,12l10.37,10.36-9.91,2.85Zm-1.86-15.58-6.84,2,2.17,7.55,6.84-2c2.26-.65,3.75-2.66,3.09-5S602.09,101.53,599.82,102.18Z"/><path class="cls-2" d="M628,100.59l5.82,20.28-8.66,2.48-9.62-33.56,8.91-2.55,19.12,15.42L638,83.35l8.7-2.5,9.62,33.55L648,116.8Z"/><path class="cls-2" d="M533.26,410.33l.94,22.48-9.15,2.63-19.23-30.8,9.71-2.78L527,422.79l-.69-24,6.64-1.91,12.16,20.74-1.39-23.83,9.76-2.79v36.3l-9.15,2.63Z"/><path class="cls-2" d="M556.23,390.19l8.65-2.49,9.62,33.56-8.65,2.48Z"/><path class="cls-2" d="M580.58,391.37l-9.41,2.7L569,386.52l27.41-7.86,2.17,7.55-9.36,2.68,7.46,26L588,417.38Z"/><path class="cls-2" d="M628.89,391.07l-13.93,4,3.86,13.48L610.17,411l-9.62-33.55L609.2,375l3.59,12.52,13.94-4L623.14,371l8.65-2.48,9.62,33.55-8.65,2.48Z"/><path class="cls-2" d="M111.23,465.42q-7.16,11.32-9.53,32.39L68.59,507.3q-1.86-19.59-9-27.08L72,476.65l-3.7-19.32L41.58,465,38.4,486.3l13-3.72q-7.16,11.58-9,32.24L9,524.39Q7.15,504.8,0,497.31l10.33-3L32.57,346.28l-10.06,2.89q7.15-11.06,9-32l42.11-12.07q1.86,19.59,9.27,26.74l-10.33,3,27.81,133.71ZM63.29,433.88,53.5,386.37,45.29,439Z"/><path class="cls-2" d="M232.25,430.71q-7.14,11.32-9.53,32.4L130,489.69q-1.86-19.59-9-27.08l9-2.58V318.34l-9,2.58q7.16-11,9-32l33.37-9.56q1.84,19.86,9,26.81l-9,2.58V450.46l26.21-7.52V301.25l-9,2.59q7.15-11.05,9-32l33.11-9.49q2.39,20,9.53,26.66l-9.53,2.73V433.45Z"/><path class="cls-2" d="M355.93,395.25q-7.15,11.33-9.54,32.39L253.7,454.22q-1.84-19.59-9-27.08l9-2.58v-27q9.27,2.64,16.95.44,7.16-2.06,16.42-10v27l26.22-7.51V352.13a51,51,0,0,1-14.56,2.19q-6.63-.09-13.38-.41t-14.3-.13a69.71,69.71,0,0,0-17.35,3V282.88l-9,2.58q7.16-11.06,9-32l92.69-26.58q2.39,20,9.54,26.66l-9.54,2.74v26.48q-6.88-4.11-15.89-1.53-8.73,2.5-17.21,11V265.79l-26.22,7.52V325A50.87,50.87,0,0,1,301,322.82q6.48,0,13.24.31t14,.08a66.58,66.58,0,0,0,16-2.74l2.11-.61V398Z"/><path class="cls-2" d="M478.28,218.48a52,52,0,0,0-7.15,12.25A78.66,78.66,0,0,0,467,243.82q-1.45,6.65-2.25,13.49t-1.59,13.43l-4-29.05q-4.77-16.37-20.13-12V371.41l9-2.59q-7.15,11.6-9,32.25L406,410.56q-2.39-19.71-9.27-27L406,380.9V239.21q-8.48,2.43-12.85,8.19a41.46,41.46,0,0,0-6.62,13.28,89.57,89.57,0,0,0-3.17,16.41q-.93,8.88-2,17.12l-3.71-24.1q-1.86-12.44-10.59-19.73,7.14-11.59,9-32l92.69-26.58Q471.13,211.53,478.28,218.48Z"/><path class="cls-2" d="M599.84,325.31q-7.15,11.32-9.54,32.39l-33.1,9.5q-2.13-20.06-9-27.08l9-2.58V297.28q-13.25,3.8-26.22-10v57.73l9-2.58q-7.14,11.59-9,32.25l-33.37,9.56q-1.86-19.59-9-27.08l9-2.58V212.94l-9,2.58q7.14-11.58,9-32L590.3,157q2.38,19.71,9.54,26.67l-9.54,2.73v49.26q-24.9,7.14-41,28.72,15.11,13.41,41,6V328ZM557.2,195.85,531,203.37v49.26q13.24-20.22,26.22-23.94Z"/><path class="cls-2" d="M723,290q-7.15,11.33-9.53,32.39l-33.11,9.5q-1.85-19.59-9-27.08l12.45-3.57-3.71-19.33-26.75,7.67-3.18,21.3,13-3.72q-7.15,11.58-9,32.24L620.76,349q-1.86-19.59-9-27.08l10.33-3,22.25-148.06-10.07,2.88q7.15-11,9-32l42.1-12.08q1.86,19.61,9.27,26.74l-10.32,3,27.8,133.71Zm-47.93-31.54L665.25,211,657,263.62Z"/><path class="cls-2" d="M844,255.3q-7.15,11.32-9.54,32.39l-92.69,26.58q-1.86-19.59-9-27.08l9-2.58V142.92l-9,2.59q7.14-11.06,9-32L775.15,104q1.85,19.86,9,26.81l-9,2.59V275l26.22-7.52v-27q9.79,2.49,17,.44T834.47,231v27Z"/><path class="cls-2" d="M902,238.67q-7.15,11.58-9,32.24l-33.37,9.57q-1.86-19.59-9-27.08l9-2.58V109.13l-9,2.58q7.15-11,9-32L893,70.17Q894.85,90,902,97l-9,2.58V241.25Z"/><path class="cls-2" d="M1026.21,203.05q-7.15,11.32-9.54,32.4l-33.1,9.49q-1.86-19.59-9-27.08L987,214.29,983.3,195l-26.75,7.67-3.17,21.3,13-3.72q-7.14,11.6-9,32.25L924,262q-1.86-19.59-9-27.08l10.33-3L947.55,83.92l-10.06,2.89q7.14-11.06,9-32L988.6,42.75q1.85,19.61,9.27,26.74l-10.33,3,27.81,133.71Zm-47.94-31.54L968.47,124l-8.21,52.67Z"/><path class="cls-2" d="M1147.23,168.35q-7.15,11.33-9.53,32.39l-33.11,9.49q-1.86-19.59-9-27.07l9-2.59v-6.35l-26.22-61.34v75.21l9-2.58q-7.16,11.58-9,32.24L1045,227.32q-1.86-19.59-9-27.08l9-2.58V56l-9,2.58q7.15-11.06,9-32L1078.37,17q1.86,19.86,9,26.82l-8,2.27L1104.59,104V38.89l-9,2.58q7.14-11.05,9-32L1137.7,0q2.37,20,9.53,26.66l-9.53,2.74V171.08Z"/><path class="cls-2" d="M284.85,645.72q-5.33,7.95-6.61,22.44l-22.94,6.58q-1.65-13.65-6.42-18.71l6.42-1.84V610.14l-8.63,30.92A12.88,12.88,0,0,0,236,639.71q-5.68,1.63-11.38,7.67l-8.44-26v44l6.24-1.79q-5,8-6.24,22.34l-23.13,6.63q-1.28-13.58-6.24-18.76l6.24-1.79V573.84l-6.24,1.79q5-7.65,6.24-22.16l23.13-6.63q1.28,13.77,6.24,18.58l-4.59,1.32,17.8,48.48,18-58.74-4.77,1.36q4.77-7.61,6.42-22.21l22.94-6.58q1.27,14,6.61,18.48l-6.61,1.89v98.19Z"/><path class="cls-2" d="M370.55,621.14Q365.6,629,364,643.59L341,650.17q-1.28-13.57-6.24-18.77l8.63-2.47-2.57-13.4-18.54,5.32-2.2,14.76,9-2.58q-5,8-6.24,22.35L299.71,662q-1.29-13.57-6.24-18.77l7.16-2,15.42-102.61-7,2q4.95-7.65,6.24-22.16l29.18-8.37q1.29,13.59,6.42,18.53l-7.15,2.06L363,623.3Zm-33.22-21.86-6.79-32.92-5.69,36.5Z"/><path class="cls-2" d="M454.42,597.09q-4.95,7.85-6.61,22.45l-22.94,6.58q-1.29-13.57-6.24-18.77l6.06-1.73-9-23.12-9,28.27,6.24-1.79q-4.95,8-6.24,22.35L383.58,638q-1.29-13.58-6.24-18.77l9.91-2.84L406,557.58l-15.6-40.31-13,3.74q4.95-7.66,6.24-22.16l23.12-6.63Q408,506,412.94,510.8l-3.3.95,6.06,15.14,5.87-18.57-2.94.85q5-7.67,6.24-22.16l22.94-6.58q1.65,13.85,6.61,18.47l-13.21,3.79-16,49.36,18.9,48Z"/><path class="cls-2" d="M704,525.52q-5.14,7.9-6.43,22.4l-64.05,18.37q-1.83-13.6-6.61-18.66l6.61-1.9V527a18.37,18.37,0,0,0,11.2.46q5.13-1.47,11.56-7v18.72l18.35-5.27V435.76l-6.42,1.84q5.13-7.71,6.42-22.21l22.94-6.58q1.29,13.77,6.43,18.53l-6.43,1.84v98.19Z"/><path class="cls-2" d="M789.89,500.9q-4.95,7.85-6.6,22.44l-64.24,18.42q-1.27-13.57-6.24-18.76l6.24-1.79V423l-6.24,1.79q5-7.65,6.24-22.16l64.24-18.42q1.65,13.84,6.6,18.48l-6.6,1.89v98.19Zm-29.54,8.47V411.18l-18.17,5.21v98.19Z"/><path class="cls-2" d="M875.6,476.32q-5,7.85-6.61,22.45l-64.23,18.42q-1.29-13.58-6.24-18.77l6.24-1.79V477.91a21.17,21.17,0,0,0,11.74.31q5-1.43,11.38-6.94V490l18.17-5.21V446.44A35.25,35.25,0,0,1,836,448q-4.59-.06-9.27-.28t-9.91-.09a48.18,48.18,0,0,0-12,2.07v-51.2l-6.24,1.79q5-7.67,6.24-22.16L869,359.66q1.65,13.83,6.61,18.47L869,380v18.35q-4.77-2.85-11-1.06Q851.92,399,846.05,405V386.61l-18.17,5.21V427.6a35.17,35.17,0,0,1,9.64-1.47c3,0,6.05.07,9.17.21s6.36.17,9.73.05a45.84,45.84,0,0,0,11.1-1.89l1.47-.43v54.14Z"/><path class="cls-2" d="M960.39,452q-5,7.85-6.61,22.45l-64.23,18.42q-1.29-13.59-6.24-18.77l6.24-1.79V374.13l-6.24,1.79q5-7.65,6.24-22.16l64.23-18.42q1.65,13.85,6.61,18.48l-6.61,1.9v18.9a19.69,19.69,0,0,0-11.2-.46q-5,1.43-11.74,7V362.29l-18.17,5.21v37.63l33.22-9.53q-3.3,5.36-3.31,9.57a9.9,9.9,0,0,0,3.31,7.5l-33.22,9.52v43.5l18.17-5.21V441.76q6.78,1.73,11.74.3t11.2-6.88V453.9Z"/><path class="cls-2" d="M580.5,573.84l-83.14-24.12v-3.85l83.14,24.06ZM497.58,472.92l83.1,24.28v4l-83.14-23.88Zm27.31,51.66a17,17,0,0,0-2.2,7.42L515,534.21c-.37-3.07-1.1-5.13-2.2-6.16l2.93-.84-.73-4.93-6.42,1.84-.55,5.3,2.93-.84c-1.22,1.7-1.9,4.15-2,7.37l-7.71,2.21c-.36-3.08-1.1-5.13-2.2-6.16l2.39-.68,5.32-35.12-2.38.69a30.42,30.42,0,0,0,2.2-7.61l9.72-2.79c.25,3.12,1,5.23,2.21,6.35l-2.39.68,6.24,31.8Zm-11-7.49-2.39-11.43-1.83,12.64Zm38,19.94a24,24,0,0,0-2.2,7.42l-7.53,2.16c-.61-3.13-1.35-5.18-2.2-6.16l2.2-.63v-1.65l-6.42-14.31v17.8l2.2-.63a24,24,0,0,0-2.2,7.42l-7.53,2.16c-.36-3.2-1.1-5.25-2.2-6.16l2.2-.63V510.23l-2.2.64c1.1-1.54,1.84-4.08,2.2-7.61l7.53-2.16q.91,4.88,2.2,6.35l-1.65.47,5.87,13.73V506.23l-2.2.64a24.72,24.72,0,0,0,2.2-7.61l7.53-2.16q.92,4.88,2.2,6.35l-2.2.63v33.58Zm25.69,8.23a4.89,4.89,0,0,0-2.2,1.55,16.6,16.6,0,0,0-2,2.87,20.36,20.36,0,0,0-1.47,3.27,9.05,9.05,0,0,0-.55,2.73l-15.41,4.42c-.37-3-1-5.09-2-6.4l2-.58V519.91l-2,.58a22.23,22.23,0,0,0,2-7.56l15.41-4.42a9.49,9.49,0,0,0,1.65,5.4,3.79,3.79,0,0,0,4.59,1.62Zm-7.89-24.71q-3.12.88-3.12-3.7l-2.94.85v33.21l2.94-.84a7.44,7.44,0,0,1,1-3.22c.67-1.3,1.38-2.05,2.11-2.26Z"/></g></g></svg>