<svg xmlns="http://www.w3.org/2000/svg" viewBox="0 0 393.78 196.89"><defs><style>.cls-1{fill:#00256f;}.cls-2{fill:#fff;}.cls-3{fill:#e20027;}</style></defs><title>Aus_Flag</title><g id="Layer_2" data-name="Layer 2"><g id="Layer_2-2" data-name="Layer 2"><rect class="cls-1" width="393.78" height="196.89"/><polygon class="cls-2" points="98.44 118.13 104.14 135.84 121.53 129.25 111.24 144.75 127.24 154.24 108.71 155.85 111.26 174.27 98.44 160.79 85.63 174.27 88.18 155.85 69.65 154.24 85.65 144.75 75.35 129.25 92.75 135.84 98.44 118.13"/><polygon class="cls-2" points="295.33 150.01 298.04 158.44 306.33 155.31 301.43 162.68 309.04 167.2 300.22 167.97 301.43 176.74 295.33 170.32 289.23 176.74 290.44 167.97 281.62 167.2 289.24 162.68 284.34 155.31 292.62 158.44 295.33 150.01"/><polygon class="cls-2" points="246.11 72.08 248.82 80.51 257.11 77.37 252.2 84.75 259.82 89.27 251 90.03 252.21 98.81 246.11 92.39 240.01 98.81 241.22 90.03 232.4 89.27 240.02 84.75 235.11 77.37 243.4 80.51 246.11 72.08"/><polygon class="cls-2" points="295.33 18.75 298.04 27.18 306.33 24.05 301.43 31.42 309.04 35.94 300.22 36.71 301.43 45.48 295.33 39.06 289.23 45.48 290.44 36.71 281.62 35.94 289.24 31.42 284.34 24.05 292.62 27.18 295.33 18.75"/><polygon class="cls-2" points="339.08 58.95 341.8 67.38 350.08 64.24 345.18 71.62 352.8 76.14 343.97 76.91 345.19 85.68 339.08 79.26 332.98 85.68 334.2 76.91 325.37 76.14 332.99 71.62 328.09 64.24 336.37 67.38 339.08 58.95"/><polygon class="cls-2" points="315.02 98.44 317.16 103.7 322.82 104.11 318.49 107.77 319.84 113.28 315.02 110.29 310.2 113.28 311.55 107.77 307.22 104.11 312.88 103.7 315.02 98.44"/><polygon class="cls-2" points="98.44 49.22 113.12 49.22 196.89 91.11 196.89 87.44 120.46 49.22 196.89 11.01 196.89 0 98.44 49.22 98.44 41.88 182.21 0 174.88 0 98.44 38.22 22.01 0 0 0 0 11.01 76.43 49.22 0 87.44 0 98.44 22.01 98.44 98.44 60.23 174.88 98.44 196.89 98.44 98.44 49.22 98.44 49.22"/><polygon class="cls-3" points="98.44 49.22 196.89 98.44 196.89 91.11 113.12 49.22 98.44 49.22"/><polygon class="cls-3" points="98.44 49.22 196.89 0 182.21 0 98.44 41.88 98.44 49.22"/><polygon class="cls-3" points="98.44 56.56 98.44 49.22 0 98.44 14.68 98.44 98.44 56.56"/><polygon class="cls-3" points="98.44 49.22 0 0 0 7.34 83.77 49.22 98.44 49.22 98.44 49.22"/><polygon class="cls-2" points="196.89 39.38 196.89 32.81 114.85 32.81 114.85 0 108.29 0 108.29 39.38 196.89 39.38"/><polygon class="cls-2" points="108.29 59.07 108.29 98.44 114.85 98.44 114.85 65.63 196.89 65.63 196.89 59.07 108.29 59.07"/><polygon class="cls-2" points="88.6 0 82.04 0 82.04 32.81 0 32.81 0 39.38 88.6 39.38 88.6 0"/><polygon class="cls-2" points="88.6 59.07 0 59.07 0 65.63 82.04 65.63 82.04 98.44 88.6 98.44 88.6 59.07"/><polygon class="cls-3" points="108.29 39.38 108.29 0 98.44 0 88.6 0 88.6 39.38 0 39.38 0 49.22 0 59.07 88.6 59.07 88.6 98.44 98.44 98.44 108.29 98.44 108.29 59.07 196.89 59.07 196.89 49.22 196.89 39.38 108.29 39.38"/></g></g></svg>