<svg xmlns="http://www.w3.org/2000/svg" viewBox="0 0 934.05 825.19"><defs><style>.cls-1{fill:#e20027;}.cls-2{fill:#fff;}.cls-3{fill:#00256f;}</style></defs><title>Asset 6</title><g id="Layer_2" data-name="Layer 2"><g id="Layer_2-2" data-name="Layer 2"><polygon class="cls-1" points="0 709.05 934.05 441.22 934.05 557.36 0 825.19 0 709.05"/><path class="cls-2" d="M934.05,548.42,0,816.26v-8.94L934.05,539.49Zm0-17.86L0,798.39v-8.93L934.05,521.62Zm0-17.87L0,780.52v-8.93L934.05,503.76Zm0-17.87L0,762.66v-8.94L934.05,485.89Zm0-17.87L0,744.79v-8.94L934.05,468Zm0-17.86L0,726.92V718L934.05,450.15Z"/><polygon class="cls-3" points="0 709.05 88.26 683.74 88.26 746.28 0 771.59 0 709.05"/><polygon class="cls-2" points="7.36 709.62 6.55 712.32 3.96 713.07 6.06 713.99 5.25 716.69 7.36 714.56 9.46 715.49 8.65 713.25 10.75 711.12 8.16 711.86 7.36 709.62"/><polygon class="cls-2" points="7.36 722.13 6.55 724.83 3.96 725.58 6.06 726.5 5.25 729.2 7.36 727.07 9.46 727.99 8.65 725.75 10.75 723.63 8.16 724.37 7.36 722.13"/><polygon class="cls-2" points="7.36 734.64 6.55 737.34 3.96 738.08 6.06 739.01 5.25 741.71 7.36 739.58 9.46 740.5 8.65 738.26 10.75 736.13 8.16 736.88 7.36 734.64"/><polygon class="cls-2" points="7.36 747.15 6.55 749.85 3.96 750.59 6.06 751.51 5.25 754.21 7.36 752.08 9.46 753.01 8.65 750.77 10.75 748.64 8.16 749.38 7.36 747.15"/><polygon class="cls-2" points="8.16 761.89 7.36 759.65 6.55 762.35 3.96 763.1 6.06 764.02 5.25 766.72 7.36 764.59 9.46 765.51 8.65 763.28 10.75 761.15 8.16 761.89"/><polygon class="cls-2" points="14.71 713.77 13.91 716.47 11.31 717.21 13.41 718.14 12.61 720.84 14.71 718.71 16.81 719.63 16.01 717.39 18.11 715.26 15.51 716.01 14.71 713.77"/><polygon class="cls-2" points="14.71 726.28 13.91 728.98 11.31 729.72 13.41 730.64 12.61 733.34 14.71 731.21 16.81 732.14 16.01 729.9 18.11 727.77 15.51 728.51 14.71 726.28"/><polygon class="cls-2" points="14.71 738.78 13.91 741.48 11.31 742.23 13.41 743.15 12.61 745.85 14.71 743.72 16.81 744.64 16.01 742.41 18.11 740.28 15.51 741.02 14.71 738.78"/><polygon class="cls-2" points="15.51 753.53 14.71 751.29 13.91 753.99 11.31 754.73 13.41 755.66 12.61 758.36 14.71 756.23 16.81 757.15 16.01 754.91 18.11 752.78 15.51 753.53"/><polygon class="cls-2" points="22.07 705.41 21.26 708.11 18.67 708.85 20.77 709.77 19.97 712.47 22.07 710.34 24.17 711.27 23.36 709.03 25.46 706.9 22.87 707.64 22.07 705.41"/><polygon class="cls-2" points="22.07 717.91 21.26 720.61 18.67 721.36 20.77 722.28 19.97 724.98 22.07 722.85 24.17 723.77 23.36 721.54 25.46 719.41 22.87 720.15 22.07 717.91"/><polygon class="cls-2" points="22.07 730.42 21.26 733.12 18.67 733.86 20.77 734.79 19.97 737.49 22.07 735.36 24.17 736.28 23.36 734.04 25.46 731.91 22.87 732.66 22.07 730.42"/><polygon class="cls-2" points="22.07 742.93 21.26 745.63 18.67 746.37 20.77 747.29 19.97 749.99 22.07 747.87 24.17 748.79 23.36 746.55 25.46 744.42 22.87 745.17 22.07 742.93"/><polygon class="cls-2" points="22.87 757.67 22.07 755.43 21.26 758.13 18.67 758.88 20.77 759.8 19.97 762.5 22.07 760.37 24.17 761.3 23.36 759.06 25.46 756.93 22.87 757.67"/><polygon class="cls-2" points="29.42 709.55 28.62 712.25 26.02 712.99 28.12 713.92 27.32 716.62 29.42 714.49 31.52 715.41 30.72 713.17 32.82 711.04 30.22 711.79 29.42 709.55"/><polygon class="cls-2" points="29.42 722.06 28.62 724.76 26.02 725.5 28.12 726.42 27.32 729.12 29.42 727 31.52 727.92 30.72 725.68 32.82 723.55 30.22 724.3 29.42 722.06"/><polygon class="cls-2" points="29.42 734.57 28.62 737.26 26.02 738.01 28.12 738.93 27.32 741.63 29.42 739.5 31.52 740.43 30.72 738.19 32.82 736.06 30.22 736.8 29.42 734.57"/><polygon class="cls-2" points="30.22 749.31 29.42 747.07 28.62 749.77 26.02 750.52 28.12 751.44 27.32 754.14 29.42 752.01 31.52 752.93 30.72 750.7 32.82 748.57 30.22 749.31"/><polygon class="cls-2" points="36.78 713.7 35.98 716.39 33.38 717.14 35.48 718.06 34.68 720.76 36.78 718.63 38.88 719.56 38.08 717.32 40.17 715.19 37.58 715.93 36.78 713.7"/><polygon class="cls-2" points="36.78 726.2 35.98 728.9 33.38 729.65 35.48 730.57 34.68 733.27 36.78 731.14 38.88 732.06 38.08 729.83 40.17 727.7 37.58 728.44 36.78 726.2"/><polygon class="cls-2" points="36.78 738.71 35.98 741.41 33.38 742.15 35.48 743.08 34.68 745.78 36.78 743.65 38.88 744.57 38.08 742.33 40.17 740.2 37.58 740.95 36.78 738.71"/><polygon class="cls-2" points="37.58 753.46 36.78 751.22 35.98 753.91 33.38 754.66 35.48 755.58 34.68 758.28 36.78 756.15 38.88 757.08 38.08 754.84 40.17 752.71 37.58 753.46"/><polygon class="cls-2" points="44.13 705.33 43.33 708.03 40.73 708.78 42.83 709.7 42.03 712.4 44.13 710.27 46.23 711.19 45.43 708.96 47.53 706.83 44.94 707.57 44.13 705.33"/><polygon class="cls-2" points="44.13 717.84 43.33 720.54 40.73 721.28 42.83 722.21 42.03 724.91 44.13 722.78 46.23 723.7 45.43 721.46 47.53 719.33 44.94 720.08 44.13 717.84"/><polygon class="cls-2" points="44.13 730.35 43.33 733.05 40.73 733.79 42.83 734.71 42.03 737.41 44.13 735.28 46.23 736.21 45.43 733.97 47.53 731.84 44.94 732.59 44.13 730.35"/><polygon class="cls-2" points="44.94 745.09 44.13 742.85 43.33 745.55 40.73 746.3 42.83 747.22 42.03 749.92 44.13 747.79 46.23 748.72 45.43 746.48 47.53 744.35 44.94 745.09"/><polygon class="cls-2" points="51.49 696.97 50.69 699.67 48.09 700.41 50.19 701.34 49.39 704.04 51.49 701.91 53.59 702.83 52.79 700.59 54.89 698.46 52.29 699.21 51.49 696.97"/><polygon class="cls-2" points="51.49 709.48 50.69 712.18 48.09 712.92 50.19 713.84 49.39 716.54 51.49 714.41 53.59 715.34 52.79 713.1 54.89 710.97 52.29 711.72 51.49 709.48"/><polygon class="cls-2" points="51.49 721.98 50.69 724.68 48.09 725.43 50.19 726.35 49.39 729.05 51.49 726.92 53.59 727.85 52.79 725.61 54.89 723.48 52.29 724.22 51.49 721.98"/><polygon class="cls-2" points="51.49 734.49 50.69 737.19 48.09 737.93 50.19 738.86 49.39 741.56 51.49 739.43 53.59 740.35 52.79 738.11 54.89 735.99 52.29 736.73 51.49 734.49"/><polygon class="cls-2" points="52.29 749.24 51.49 747 50.69 749.7 48.09 750.44 50.19 751.37 49.39 754.07 51.49 751.94 53.59 752.86 52.79 750.62 54.89 748.49 52.29 749.24"/><polygon class="cls-2" points="58.84 701.11 58.04 703.81 55.44 704.56 57.55 705.48 56.74 708.18 58.84 706.05 60.94 706.98 60.14 704.74 62.24 702.61 59.65 703.35 58.84 701.11"/><polygon class="cls-2" points="58.84 713.62 58.04 716.32 55.44 717.07 57.55 717.99 56.74 720.69 58.84 718.56 60.94 719.48 60.14 717.24 62.24 715.12 59.65 715.86 58.84 713.62"/><polygon class="cls-2" points="58.84 726.13 58.04 728.83 55.44 729.57 57.55 730.5 56.74 733.2 58.84 731.07 60.94 731.99 60.14 729.75 62.24 727.62 59.65 728.37 58.84 726.13"/><polygon class="cls-2" points="59.65 740.87 58.84 738.63 58.04 741.34 55.44 742.08 57.55 743 56.74 745.7 58.84 743.57 60.94 744.5 60.14 742.26 62.24 740.13 59.65 740.87"/><polygon class="cls-2" points="66.2 692.75 65.4 695.45 62.8 696.2 64.9 697.12 64.1 699.82 66.2 697.69 68.3 698.61 67.5 696.37 69.6 694.25 67 694.99 66.2 692.75"/><polygon class="cls-2" points="66.2 705.26 65.4 707.96 62.8 708.7 64.9 709.63 64.1 712.33 66.2 710.2 68.3 711.12 67.5 708.88 69.6 706.75 67 707.5 66.2 705.26"/><polygon class="cls-2" points="66.2 717.77 65.4 720.47 62.8 721.21 64.9 722.13 64.1 724.83 66.2 722.7 68.3 723.63 67.5 721.39 69.6 719.26 67 720 66.2 717.77"/><polygon class="cls-2" points="66.2 730.27 65.4 732.97 62.8 733.72 64.9 734.64 64.1 737.34 66.2 735.21 68.3 736.13 67.5 733.9 69.6 731.77 67 732.51 66.2 730.27"/><polygon class="cls-2" points="67 745.02 66.2 742.78 65.4 745.48 62.8 746.22 64.9 747.15 64.1 749.85 66.2 747.72 68.3 748.64 67.5 746.4 69.6 744.27 67 745.02"/><polygon class="cls-2" points="73.55 696.9 72.75 699.6 70.16 700.34 72.26 701.26 71.45 703.96 73.55 701.83 75.65 702.76 74.85 700.52 76.95 698.39 74.36 699.13 73.55 696.9"/><polygon class="cls-2" points="73.55 709.4 72.75 712.1 70.16 712.85 72.26 713.77 71.45 716.47 73.55 714.34 75.65 715.26 74.85 713.03 76.95 710.9 74.36 711.64 73.55 709.4"/><polygon class="cls-2" points="73.55 721.91 72.75 724.61 70.16 725.35 72.26 726.28 71.45 728.98 73.55 726.85 75.65 727.77 74.85 725.53 76.95 723.4 74.36 724.15 73.55 721.91"/><polygon class="cls-2" points="74.36 736.66 73.55 734.42 72.75 737.12 70.16 737.86 72.26 738.78 71.45 741.48 73.55 739.36 75.65 740.28 74.85 738.04 76.95 735.91 74.36 736.66"/><polygon class="cls-2" points="79.61 692.9 78.81 695.6 80.91 693.47 83.01 694.39 82.21 692.16 84.31 690.03 81.71 690.77 80.91 688.53 80.11 691.23 77.51 691.98 79.61 692.9"/><polygon class="cls-2" points="80.91 701.04 80.11 703.74 77.51 704.48 79.61 705.41 78.81 708.11 80.91 705.98 83.01 706.9 82.21 704.66 84.31 702.53 81.71 703.28 80.91 701.04"/><polygon class="cls-2" points="80.91 713.55 80.11 716.25 77.51 716.99 79.61 717.91 78.81 720.61 80.91 718.49 83.01 719.41 82.21 717.17 84.31 715.04 81.71 715.79 80.91 713.55"/><polygon class="cls-2" points="80.91 726.05 80.11 728.75 77.51 729.5 79.61 730.42 78.81 733.12 80.91 730.99 83.01 731.92 82.21 729.68 84.31 727.55 81.71 728.29 80.91 726.05"/><polygon class="cls-2" points="81.71 740.8 80.91 738.56 80.11 741.26 77.51 742 79.61 742.93 78.81 745.63 80.91 743.5 83.01 744.42 82.21 742.18 84.31 740.06 81.71 740.8"/><polygon class="cls-2" points="36.78 701.19 35.98 703.89 33.38 704.63 35.48 705.55 34.68 708.25 36.78 706.13 38.88 707.05 38.08 704.81 40.17 702.68 37.58 703.43 36.78 701.19"/><path class="cls-2" d="M384.34,96.64,393,94.16l7.46,26,13.48-3.87,2.16,7.55L394,130.2Z"/><path class="cls-2" d="M411,89,435.55,82l2.09,7.29-15.95,4.57,1.6,5.59,15.6-4.47,2.11,7.34-15.6,4.47,1.73,6,15.95-4.57,2.09,7.29-24.6,7Z"/><path class="cls-2" d="M470.23,102.83l-13.94,4-.25,5.57-9.41,2.7,3-37.17L460.5,74.8l22.3,29.92-9.41,2.7Zm-13.77-4,9.41-2.7L457.23,83.9Z"/><path class="cls-2" d="M495.09,88.89l-4.43,1.27,3.26,11.37L485.27,104l-9.62-33.55,16.8-4.82c7.44-2.13,13.08,1.58,14.87,7.82,1.68,5.84-1,10-3.8,12L513.89,95.8,504,98.65Zm-1.86-15.58-6.84,2,2.16,7.55,6.85-2c2.26-.65,3.75-2.66,3.09-5S495.5,72.66,493.23,73.31Z"/><path class="cls-2" d="M521.36,71.72,527.17,92l-8.65,2.48L508.9,60.92l8.9-2.55,19.13,15.42-5.54-19.32,8.7-2.49,9.62,33.55-8.35,2.4Z"/><path class="cls-2" d="M426.66,378.7l.95,22.49-9.15,2.62L399.23,373l9.71-2.78,11.5,20.93-.69-24,6.64-1.91L438.55,386l-1.39-23.82,9.76-2.8v36.31l-9.16,2.62Z"/><path class="cls-2" d="M449.64,358.56l8.65-2.48,9.62,33.55-8.65,2.48Z"/><path class="cls-2" d="M474,359.74l-9.41,2.7-2.17-7.55L489.83,347l2.17,7.55-9.36,2.68,7.46,26-8.66,2.48Z"/><path class="cls-2" d="M522.3,359.44l-13.93,4,3.86,13.48-8.65,2.48L494,345.85l8.65-2.48,3.59,12.52,13.94-4-3.59-12.53,8.65-2.48,9.62,33.55-8.65,2.49Z"/><path class="cls-2" d="M111.23,404.29q-7.16,11.32-9.53,32.39l-33.11,9.49q-1.86-19.59-9-27.08L72,415.53l-3.7-19.33-26.75,7.67-3.18,21.3,13-3.72q-7.16,11.58-9,32.24L9,463.26q-1.85-19.59-9-27.08l10.33-3L32.57,285.16,22.51,288q7.15-11.06,9-32L73.62,244q1.86,19.59,9.27,26.74l-10.33,3L100.37,407.4ZM63.3,372.75l-9.8-47.51-8.21,52.67Z"/><path class="cls-2" d="M262.44,360.93q-7.68,11.47-9.53,32.39l-33.1,9.49q-2.38-19.69-9.27-27l9.27-2.66V309.59l-12.45,44.62A18.63,18.63,0,0,0,192,352.26q-8.22,2.36-16.42,11.06L163.4,325.77v63.56l9-2.58q-7.16,11.58-9,32.24L130,428.56q-1.86-19.59-9-27.08l9-2.58V257.21l-9,2.58q7.16-11,9-32l33.37-9.56q1.84,19.86,9,26.81l-6.62,1.9,25.69,70,25.95-84.77-6.88,2q6.89-11,9.27-32.06l33.1-9.49q1.84,20.13,9.53,26.66L252.91,222V363.66Z"/><path class="cls-2" d="M386.12,325.46q-7.15,11.32-9.54,32.4l-92.69,26.58q-1.84-19.59-9-27.08l9-2.58V213.09l-9,2.58q7.16-11,9-32l92.69-26.57q2.39,20,9.54,26.66l-9.54,2.73v27.28q-9-2.72-16.15-.66t-16.95,10.15V196l-26.22,7.52v54.29l47.94-13.74q-4.77,7.73-4.77,13.81a14.26,14.26,0,0,0,4.77,10.82l-47.94,13.74v62.77l26.22-7.52v-27q9.79,2.49,16.95.43t16.15-9.93v27Z"/><path class="cls-2" d="M506.35,291q-7.16,11.33-9.53,32.39l-33.11,9.49q-2.11-20-9-27.07l9-2.59V263q-13.24,3.8-26.22-10v57.73l9-2.58q-7.15,11.58-9,32.24L404.13,350q-1.86-19.59-9-27.08l9-2.58V178.61l-9,2.59q7.15-11.59,9-32l92.69-26.58q2.39,19.71,9.53,26.66L496.82,152v49.25q-24.9,7.14-41.05,28.72,15.09,13.43,41.05,6v57.73ZM463.71,161.53l-26.22,7.52v49.26q13.25-20.22,26.22-23.94Z"/><path class="cls-2" d="M569.64,272.84q-7.14,11.58-9,32.24l-33.37,9.57q-1.86-19.59-9-27.08l9-2.58V143.3l-9,2.59q7.14-11.05,9-32l33.37-9.57q1.85,19.86,9,26.81l-9,2.59V275.42Z"/><path class="cls-2" d="M693.85,237.22q-7.15,11.33-9.53,32.4L591.63,296.2q-1.86-19.59-9-27.08l9-2.58V124.85l-9,2.58q7.15-11,9-32l92.69-26.57q2.38,20,9.53,26.66l-9.53,2.73v27.28q-9-2.72-16.16-.67T651.21,135V107.76L625,115.28V257l26.22-7.52v-27q9.79,2.49,16.95.43t16.16-9.93v27Z"/><path class="cls-2" d="M813,203.05q-7.14,11.32-9.53,32.4l-33.1,9.49q-1.86-19.59-9-27.08l12.45-3.57L770.12,195l-26.75,7.67-3.18,21.3,13-3.72q-7.15,11.6-9,32.25L710.8,262q-1.86-19.59-9-27.08l10.33-3L734.37,83.92,724.3,86.81q7.16-11.06,9-32l42.11-12.08q1.85,19.61,9.27,26.74l-10.33,3,27.8,133.71Zm-47.93-31.54L755.29,124l-8.21,52.67Z"/><path class="cls-2" d="M934.05,168.35q-7.15,11.33-9.54,32.39l-33.1,9.49q-1.86-19.59-9-27.07l9-2.59v-6.35l-26.22-61.34v75.21l9-2.58q-7.14,11.58-9,32.24l-33.37,9.57q-1.86-19.59-9-27.08l9-2.58V56l-9,2.58q7.14-11.06,9-32L865.19,17q1.84,19.86,9,26.81l-7.94,2.28L891.41,104V38.89l-9,2.58q7.15-11.05,9-32L924.51,0q2.38,20,9.54,26.66l-9.54,2.74V171.08Z"/><path class="cls-2" d="M157.79,621q-5.13,7.9-6.42,22.39L87.32,661.78q-1.84-13.6-6.61-18.66l6.61-1.89V622.51a18.42,18.42,0,0,0,11.19.46q5.14-1.47,11.57-7V634.7l18.35-5.26V531.25L122,533.09q5.15-7.71,6.43-22.21l22.94-6.58q1.27,13.77,6.42,18.53l-6.42,1.84v98.19Z"/><path class="cls-2" d="M243.68,596.39q-5,7.85-6.61,22.45l-64.23,18.42q-1.29-13.57-6.24-18.77l6.24-1.79V518.52l-6.24,1.79q5-7.66,6.24-22.16l64.23-18.42q1.67,13.83,6.61,18.47l-6.61,1.9v98.18Zm-29.55,8.47V506.68L196,511.89v98.18Z"/><path class="cls-2" d="M329.39,571.81q-5,7.86-6.61,22.45l-64.23,18.42q-1.29-13.57-6.24-18.76l6.24-1.79V573.41a21.07,21.07,0,0,0,11.74.3q4.95-1.43,11.38-6.93V585.5l18.17-5.21V541.93a35.3,35.3,0,0,1-10.1,1.52c-3.06,0-6.14-.13-9.26-.28s-6.43-.18-9.91-.1a48.71,48.71,0,0,0-12,2.08V493.94l-6.24,1.79q4.95-7.65,6.24-22.16l64.23-18.42q1.65,13.85,6.61,18.48l-6.61,1.89v18.36q-4.77-2.85-11-1.07-6.06,1.74-11.93,7.64V482.1l-18.17,5.21V523.1a35.52,35.52,0,0,1,9.63-1.48q4.5,0,9.18.21t9.73.06a46,46,0,0,0,11.1-1.9l1.47-.42v54.14Z"/><path class="cls-2" d="M414.17,547.5q-4.95,7.85-6.6,22.45l-64.24,18.42q-1.27-13.57-6.24-18.77l6.24-1.78V469.63l-6.24,1.79q5-7.67,6.24-22.16l64.24-18.42q1.65,13.85,6.6,18.48l-6.6,1.89v18.9a19.78,19.78,0,0,0-11.2-.46q-5,1.43-11.74,7v-18.9L366.46,463v37.62l33.21-9.52c-2.2,3.56-3.3,6.76-3.3,9.57a9.86,9.86,0,0,0,3.3,7.49l-33.21,9.53v43.49L384.63,556V537.26q6.78,1.72,11.74.3t11.2-6.88V549.4Z"/><path class="cls-2" d="M539.52,524.46l-83.14-24.11v-3.86l83.14,24.06ZM456.6,423.54l83.1,24.28v4L456.56,428Zm27.31,51.66a17,17,0,0,0-2.2,7.42L474,484.83q-.56-4.6-2.2-6.16l2.93-.84L474,472.9l-6.42,1.85L467,480l2.94-.84c-1.22,1.7-1.9,4.15-2,7.37l-7.71,2.21c-.36-3.08-1.1-5.13-2.2-6.16l2.39-.68,5.32-35.11-2.39.68a29.82,29.82,0,0,0,2.21-7.61l9.72-2.78c.25,3.11,1,5.22,2.21,6.34l-2.39.68,6.24,31.8Zm-11-7.49-2.39-11.42-1.83,12.63Zm38,19.94a24.31,24.31,0,0,0-2.21,7.42l-7.52,2.16c-.61-3.13-1.35-5.18-2.2-6.16l2.2-.63v-1.65l-6.42-14.31v17.8l2.2-.63a24.07,24.07,0,0,0-2.2,7.42l-7.53,2.16c-.36-3.2-1.1-5.25-2.2-6.16l2.2-.63V460.86l-2.2.63c1.1-1.54,1.84-4.08,2.2-7.61l7.53-2.16c.61,3.26,1.34,5.37,2.2,6.35l-1.65.47,5.87,13.73V456.86l-2.2.63a24.62,24.62,0,0,0,2.2-7.61l7.52-2.15c.62,3.25,1.35,5.36,2.21,6.34l-2.21.63v33.58Zm25.69,8.24a4.86,4.86,0,0,0-2.2,1.54,15.81,15.81,0,0,0-2,2.88,19.89,19.89,0,0,0-1.47,3.26,8.8,8.8,0,0,0-.55,2.73l-15.42,4.42c-.36-3-1-5.08-2-6.39l2-.58V470.53l-2,.58a22,22,0,0,0,2-7.56l15.42-4.42a9.49,9.49,0,0,0,1.65,5.4,3.76,3.76,0,0,0,4.59,1.62Zm-7.89-24.72q-3.12.9-3.12-3.69l-2.94.84v33.22l2.94-.85a7.3,7.3,0,0,1,1-3.22,4.1,4.1,0,0,1,2.11-2.26Z"/><path class="cls-2" d="M683.76,470.2q-5.32,7.95-6.6,22.45l-22.95,6.58q-1.65-13.67-6.42-18.72l6.42-1.84V434.62l-8.62,30.92a13,13,0,0,0-10.65-1.35q-5.69,1.63-11.37,7.67l-8.45-26v44.05l6.24-1.79q-5,8-6.24,22.35L592,517.07q-1.29-13.58-6.24-18.77l6.24-1.79V398.33l-6.24,1.78q4.95-7.65,6.24-22.16l23.12-6.63q1.29,13.77,6.24,18.59l-4.58,1.31,17.8,48.49,18-58.75-4.77,1.37q4.77-7.6,6.42-22.22l22.95-6.57q1.27,13.93,6.6,18.47l-6.6,1.9v98.18Z"/><path class="cls-2" d="M769.47,445.62q-5,7.85-6.61,22.45l-22.94,6.58q-1.29-13.57-6.24-18.76l8.63-2.48L739.74,440l-18.54,5.31L719,460.1l9-2.58q-4.95,8-6.24,22.34l-23.12,6.63q-1.29-13.58-6.24-18.76l7.15-2.06L715,363.07l-7,2q4.95-7.67,6.24-22.16l29.18-8.37q1.27,13.57,6.42,18.53l-7.16,2.05,19.27,92.66Zm-33.22-21.85-6.79-32.93-5.69,36.5Z"/><path class="cls-2" d="M853.34,421.57q-5,7.86-6.61,22.45l-22.94,6.58q-1.29-13.58-6.24-18.76l6.06-1.74-9-23.12-9,28.28,6.24-1.79q-5,8-6.24,22.34l-23.12,6.63q-1.29-13.57-6.24-18.76l9.91-2.85,18.72-58.77-15.6-40.31-13,3.74q4.95-7.65,6.24-22.16l23.12-6.63q1.27,13.77,6.24,18.58l-3.3,1,6.05,15.15,5.87-18.57-2.93.84q5-7.66,6.24-22.16l22.94-6.58q1.65,13.84,6.61,18.48l-13.22,3.79-16,49.36,18.9,48Z"/></g></g></svg>