<svg xmlns="http://www.w3.org/2000/svg" viewBox="0 0 393.78 196.89"><defs><style>.cls-1{fill:#e20027;}.cls-2{fill:#fff;}.cls-3{fill:#00256f;}</style></defs><title>USA_Flag</title><g id="Layer_2" data-name="Layer 2"><g id="Layer_2-2" data-name="Layer 2"><rect class="cls-1" width="393.78" height="196.89"/><path class="cls-2" d="M393.78,181.74H0V166.6H393.78Zm0-30.29H0V136.31H393.78Zm0-30.29H0V106H393.78Zm0-30.29H0V75.73H393.78Zm0-30.29H0V45.44H393.78Zm0-30.29H0V15.15H393.78Z"/><rect class="cls-3" width="149.63" height="106.02"/><polygon class="cls-2" points="12.47 4.54 11.11 8.73 6.71 8.73 10.27 11.32 8.91 15.5 12.47 12.92 16.03 15.5 14.67 11.32 18.23 8.73 13.83 8.73 12.47 4.54"/><polygon class="cls-2" points="12.47 25.75 11.11 29.93 6.71 29.93 10.27 32.52 8.91 36.71 12.47 34.12 16.03 36.71 14.67 32.52 18.23 29.93 13.83 29.93 12.47 25.75"/><polygon class="cls-2" points="12.47 46.95 11.11 51.14 6.71 51.14 10.27 53.72 8.91 57.91 12.47 55.32 16.03 57.91 14.67 53.72 18.23 51.14 13.83 51.14 12.47 46.95"/><polygon class="cls-2" points="12.47 68.15 11.11 72.34 6.71 72.34 10.27 74.93 8.91 79.11 12.47 76.53 16.03 79.11 14.67 74.93 18.23 72.34 13.83 72.34 12.47 68.15"/><polygon class="cls-2" points="13.83 93.54 12.47 89.36 11.11 93.54 6.71 93.54 10.27 96.13 8.91 100.32 12.47 97.73 16.03 100.32 14.67 96.13 18.23 93.54 13.83 93.54"/><polygon class="cls-2" points="24.94 15.14 23.58 19.33 19.18 19.33 22.74 21.92 21.38 26.1 24.94 23.52 28.5 26.1 27.14 21.92 30.7 19.33 26.3 19.33 24.94 15.14"/><polygon class="cls-2" points="24.94 36.35 23.58 40.53 19.18 40.53 22.74 43.12 21.38 47.31 24.94 44.72 28.5 47.31 27.14 43.12 30.7 40.53 26.3 40.53 24.94 36.35"/><polygon class="cls-2" points="24.94 57.55 23.58 61.74 19.18 61.74 22.74 64.33 21.38 68.51 24.94 65.92 28.5 68.51 27.14 64.33 30.7 61.74 26.3 61.74 24.94 57.55"/><polygon class="cls-2" points="26.3 82.94 24.94 78.75 23.58 82.94 19.18 82.94 22.74 85.53 21.38 89.71 24.94 87.13 28.5 89.71 27.14 85.53 30.7 82.94 26.3 82.94"/><polygon class="cls-2" points="37.41 4.54 36.05 8.73 31.65 8.73 35.21 11.32 33.85 15.5 37.41 12.92 40.97 15.5 39.61 11.32 43.17 8.73 38.77 8.73 37.41 4.54"/><polygon class="cls-2" points="37.41 25.75 36.05 29.93 31.65 29.93 35.21 32.52 33.85 36.71 37.41 34.12 40.97 36.71 39.61 32.52 43.17 29.93 38.77 29.93 37.41 25.75"/><polygon class="cls-2" points="37.41 46.95 36.05 51.14 31.65 51.14 35.21 53.72 33.85 57.91 37.41 55.32 40.97 57.91 39.61 53.72 43.17 51.14 38.77 51.14 37.41 46.95"/><polygon class="cls-2" points="37.41 68.15 36.05 72.34 31.65 72.34 35.21 74.93 33.85 79.11 37.41 76.53 40.97 79.11 39.61 74.93 43.17 72.34 38.77 72.34 37.41 68.15"/><polygon class="cls-2" points="38.77 93.54 37.41 89.36 36.05 93.54 31.65 93.54 35.21 96.13 33.85 100.32 37.41 97.73 40.97 100.32 39.61 96.13 43.17 93.54 38.77 93.54"/><polygon class="cls-2" points="49.88 15.14 48.52 19.33 44.12 19.33 47.68 21.92 46.32 26.1 49.88 23.52 53.44 26.1 52.08 21.92 55.64 19.33 51.24 19.33 49.88 15.14"/><polygon class="cls-2" points="49.88 36.35 48.52 40.53 44.12 40.53 47.68 43.12 46.32 47.31 49.88 44.72 53.44 47.31 52.08 43.12 55.64 40.53 51.24 40.53 49.88 36.35"/><polygon class="cls-2" points="49.88 57.55 48.52 61.74 44.12 61.74 47.68 64.33 46.32 68.51 49.88 65.92 53.44 68.51 52.08 64.33 55.64 61.74 51.24 61.74 49.88 57.55"/><polygon class="cls-2" points="51.24 82.94 49.88 78.75 48.52 82.94 44.12 82.94 47.68 85.53 46.32 89.71 49.88 87.13 53.44 89.71 52.08 85.53 55.64 82.94 51.24 82.94"/><polygon class="cls-2" points="62.35 25.75 60.99 29.93 56.59 29.93 60.15 32.52 58.79 36.71 62.35 34.12 65.91 36.71 64.55 32.52 68.11 29.93 63.71 29.93 62.35 25.75"/><polygon class="cls-2" points="62.35 46.95 60.99 51.14 56.59 51.14 60.15 53.72 58.79 57.91 62.35 55.32 65.91 57.91 64.55 53.72 68.11 51.14 63.71 51.14 62.35 46.95"/><polygon class="cls-2" points="62.35 68.15 60.99 72.34 56.59 72.34 60.15 74.93 58.79 79.11 62.35 76.53 65.91 79.11 64.55 74.93 68.11 72.34 63.71 72.34 62.35 68.15"/><polygon class="cls-2" points="63.71 93.54 62.35 89.36 60.99 93.54 56.59 93.54 60.15 96.13 58.79 100.32 62.35 97.73 65.91 100.32 64.55 96.13 68.11 93.54 63.71 93.54"/><polygon class="cls-2" points="74.82 15.14 73.46 19.33 69.06 19.33 72.62 21.92 71.26 26.1 74.82 23.52 78.38 26.1 77.02 21.92 80.58 19.33 76.18 19.33 74.82 15.14"/><polygon class="cls-2" points="74.82 36.35 73.46 40.53 69.06 40.53 72.62 43.12 71.26 47.31 74.82 44.72 78.38 47.31 77.02 43.12 80.58 40.53 76.18 40.53 74.82 36.35"/><polygon class="cls-2" points="74.82 57.55 73.46 61.74 69.06 61.74 72.62 64.33 71.26 68.51 74.82 65.92 78.38 68.51 77.02 64.33 80.58 61.74 76.18 61.74 74.82 57.55"/><polygon class="cls-2" points="76.18 82.94 74.82 78.75 73.46 82.94 69.06 82.94 72.62 85.53 71.26 89.71 74.82 87.13 78.38 89.71 77.02 85.53 80.58 82.94 76.18 82.94"/><polygon class="cls-2" points="87.29 4.54 85.93 8.73 81.53 8.73 85.09 11.32 83.73 15.5 87.29 12.92 90.85 15.5 89.49 11.32 93.05 8.73 88.65 8.73 87.29 4.54"/><polygon class="cls-2" points="87.29 25.75 85.93 29.93 81.53 29.93 85.09 32.52 83.73 36.71 87.29 34.12 90.85 36.71 89.49 32.52 93.05 29.93 88.65 29.93 87.29 25.75"/><polygon class="cls-2" points="87.29 46.95 85.93 51.14 81.53 51.14 85.09 53.72 83.73 57.91 87.29 55.32 90.85 57.91 89.49 53.72 93.05 51.14 88.65 51.14 87.29 46.95"/><polygon class="cls-2" points="87.29 68.15 85.93 72.34 81.53 72.34 85.09 74.93 83.73 79.11 87.29 76.53 90.85 79.11 89.49 74.93 93.05 72.34 88.65 72.34 87.29 68.15"/><polygon class="cls-2" points="88.65 93.54 87.29 89.36 85.93 93.54 81.53 93.54 85.09 96.13 83.73 100.32 87.29 97.73 90.85 100.32 89.49 96.13 93.05 93.54 88.65 93.54"/><polygon class="cls-2" points="99.76 15.14 98.4 19.33 94 19.33 97.56 21.92 96.2 26.1 99.76 23.52 103.32 26.1 101.96 21.92 105.52 19.33 101.12 19.33 99.76 15.14"/><polygon class="cls-2" points="99.76 36.35 98.4 40.53 94 40.53 97.56 43.12 96.2 47.31 99.76 44.72 103.32 47.31 101.96 43.12 105.52 40.53 101.12 40.53 99.76 36.35"/><polygon class="cls-2" points="99.76 57.55 98.4 61.74 94 61.74 97.56 64.33 96.2 68.51 99.76 65.92 103.32 68.51 101.96 64.33 105.52 61.74 101.12 61.74 99.76 57.55"/><polygon class="cls-2" points="101.12 82.94 99.76 78.75 98.4 82.94 94 82.94 97.56 85.53 96.2 89.71 99.76 87.13 103.32 89.71 101.96 85.53 105.52 82.94 101.12 82.94"/><polygon class="cls-2" points="112.23 4.54 110.87 8.73 106.46 8.73 110.03 11.32 108.67 15.5 112.23 12.92 115.79 15.5 114.43 11.32 117.99 8.73 113.59 8.73 112.23 4.54"/><polygon class="cls-2" points="112.23 25.75 110.87 29.93 106.46 29.93 110.03 32.52 108.67 36.71 112.23 34.12 115.79 36.71 114.43 32.52 117.99 29.93 113.59 29.93 112.23 25.75"/><polygon class="cls-2" points="112.23 46.95 110.87 51.14 106.46 51.14 110.03 53.72 108.67 57.91 112.23 55.32 115.79 57.91 114.43 53.72 117.99 51.14 113.59 51.14 112.23 46.95"/><polygon class="cls-2" points="112.23 68.15 110.87 72.34 106.46 72.34 110.03 74.93 108.67 79.11 112.23 76.53 115.79 79.11 114.43 74.93 117.99 72.34 113.59 72.34 112.23 68.15"/><polygon class="cls-2" points="113.59 93.54 112.23 89.36 110.87 93.54 106.46 93.54 110.03 96.13 108.67 100.32 112.23 97.73 115.79 100.32 114.43 96.13 117.99 93.54 113.59 93.54"/><polygon class="cls-2" points="124.69 15.14 123.33 19.33 118.93 19.33 122.5 21.92 121.14 26.1 124.69 23.52 128.26 26.1 126.9 21.92 130.46 19.33 126.06 19.33 124.69 15.14"/><polygon class="cls-2" points="124.69 36.35 123.33 40.53 118.93 40.53 122.5 43.12 121.14 47.31 124.69 44.72 128.26 47.31 126.9 43.12 130.46 40.53 126.06 40.53 124.69 36.35"/><polygon class="cls-2" points="124.69 57.55 123.33 61.74 118.93 61.74 122.5 64.33 121.14 68.51 124.69 65.92 128.26 68.51 126.9 64.33 130.46 61.74 126.06 61.74 124.69 57.55"/><polygon class="cls-2" points="126.06 82.94 124.69 78.75 123.33 82.94 118.93 82.94 122.5 85.53 121.14 89.71 124.69 87.13 128.26 89.71 126.9 85.53 130.46 82.94 126.06 82.94"/><polygon class="cls-2" points="134.96 11.32 133.6 15.5 137.16 12.92 140.73 15.5 139.37 11.32 142.93 8.73 138.53 8.73 137.16 4.54 135.81 8.73 131.4 8.73 134.96 11.32"/><polygon class="cls-2" points="137.16 25.75 135.81 29.93 131.4 29.93 134.96 32.52 133.6 36.71 137.16 34.12 140.73 36.71 139.37 32.52 142.93 29.93 138.53 29.93 137.16 25.75"/><polygon class="cls-2" points="137.16 46.95 135.81 51.14 131.4 51.14 134.96 53.72 133.6 57.91 137.16 55.32 140.73 57.91 139.37 53.72 142.93 51.14 138.53 51.14 137.16 46.95"/><polygon class="cls-2" points="137.16 68.15 135.81 72.34 131.4 72.34 134.96 74.93 133.6 79.11 137.16 76.53 140.73 79.11 139.37 74.93 142.93 72.34 138.53 72.34 137.16 68.15"/><polygon class="cls-2" points="138.53 93.54 137.16 89.36 135.81 93.54 131.4 93.54 134.96 96.13 133.6 100.32 137.16 97.73 140.73 100.32 139.37 96.13 142.93 93.54 138.53 93.54"/><polygon class="cls-2" points="62.35 4.54 60.99 8.73 56.59 8.73 60.15 11.32 58.79 15.5 62.35 12.92 65.91 15.5 64.55 11.32 68.11 8.73 63.71 8.73 62.35 4.54"/></g></g></svg>